<svg width="40" height="40" viewBox="0 0 40 40" fill="none" xmlns="http://www.w3.org/2000/svg">
<path d="M30 5C30 2.23858 25.5228 0 20 0C14.4772 0 10 2.23858 10 5V35C10 37.7614 14.4772 40 20 40C25.5228 40 30 37.7614 30 35V5Z" fill="#E9E9E9"/>
<path d="M35 10H5C2.23858 10 0 14.4772 0 20C0 25.5228 2.23858 30 5 30H35C37.7614 30 40 25.5228 40 20C40 14.4772 37.7614 10 35 10Z" fill="#E9E9E9"/>
<path d="M14.5 6.85C15.5217 6.85 16.35 6.02173 16.35 5C16.35 3.97827 15.5217 3.15 14.5 3.15C13.4783 3.15 12.65 3.97827 12.65 5C12.65 6.02173 13.4783 6.85 14.5 6.85Z" fill="#F2F6F9"/>
<path d="M25.5 36.85C26.5217 36.85 27.35 36.0217 27.35 35C27.35 33.9783 26.5217 33.15 25.5 33.15C24.4783 33.15 23.65 33.9783 23.65 35C23.65 36.0217 24.4783 36.85 25.5 36.85Z" fill="#F2F6F9"/>
<path d="M10 9.5H20" stroke="#F2F6F9"/>
<path d="M20 30.5H30" stroke="#F2F6F9"/>
<path d="M9.5 30C9.5 20 12 20 19.5 20C28 20 30.5 20 30.5 10" stroke="#F2F6F9"/>
</svg>
