<svg width="100" height="112" viewBox="0 0 100 112" fill="none" xmlns="http://www.w3.org/2000/svg">
<g id="logo">
<g id="ct">
<g id="svgGroup">
<path id="c" fill-rule="evenodd" clip-rule="evenodd" d="M36.4 100H26.7C23.7867 100 21.3583 99.564 19.415 98.692C18.217 98.1704 17.1395 97.4071 16.25 96.45C14.166 94.1733 13.0843 90.5553 13.005 85.596C13.0017 85.3974 13.0001 85.1987 13 85V72C13.005 70.8667 12.9398 69.7342 12.805 68.609C12.5083 66.2297 11.8733 64.31 10.9 62.85C10.3603 62.007 9.63981 61.2946 8.79076 60.7645C7.9417 60.2344 6.98535 59.8998 5.991 59.785C5.5631 59.7274 5.13176 59.699 4.7 59.7H0V52.3H4.7C5.60994 52.3109 6.51565 52.1745 7.382 51.896C8.83394 51.4094 10.0755 50.4404 10.9 49.15C11.4687 48.2753 11.9067 47.3222 12.2 46.321C12.482 45.397 12.6897 44.372 12.823 43.246C12.9453 42.1684 13.0044 41.0845 13 40V27C13 21.6667 14.0833 17.8333 16.25 15.5C17.924 13.6973 20.3837 12.591 23.629 12.181C24.6479 12.0565 25.6736 11.9961 26.7 12H36.4V19H30.4C27.9247 19 25.9903 19.3023 24.597 19.907C24.5646 19.9211 24.5322 19.9354 24.5 19.95C23.279 20.5004 22.3093 21.4894 21.783 22.721C21.6971 22.9106 21.6194 23.1038 21.55 23.3C20.9833 24.9 20.7 27.1333 20.7 30V40.8C20.7053 42.0692 20.6265 43.3373 20.464 44.596C20.2853 45.9327 20.0053 47.1577 19.624 48.271C19.3754 49.005 19.0664 49.7171 18.7 50.4C17.427 52.7533 15.4178 54.6245 12.98 55.727C12.8541 55.7864 12.7275 55.8441 12.6 55.9V56.1C14.0654 56.7268 15.4035 57.6168 16.548 58.726C17.4053 59.5707 18.1308 60.5396 18.7 61.6C19.312 62.7554 19.7715 63.9854 20.067 65.259C20.3437 66.4063 20.5297 67.6537 20.625 69.001C20.6758 69.7329 20.7008 70.4663 20.7 71.2V82C20.698 82.83 20.7253 83.6599 20.782 84.488C20.8927 86.0433 21.1153 87.348 21.45 88.402C21.4817 88.5019 21.515 88.6012 21.55 88.7C21.7667 89.3322 22.0819 89.9262 22.484 90.46C23.0126 91.1501 23.7057 91.6968 24.5 92.05C25.842 92.6573 27.704 92.9737 30.086 92.999C30.1907 92.9999 30.2953 93.0002 30.4 93H36.4V100Z" fill="#F1F3F5"/>
<path id="t" fill-rule="evenodd" clip-rule="evenodd" d="M55.9 12L91.3 93H83.2L47.8 12H55.9Z" fill="#F1F3F5"/>
<path id="dash" fill-rule="evenodd" clip-rule="evenodd" d="M99.7 63.4H70V56H99.7V63.4Z" fill="#F1F3F5"/>
</g>
</g>
</g>
</svg>
